<svg id="Layer_1" data-name="Layer 1" xmlns="http://www.w3.org/2000/svg" viewBox="0 0 284.9 185.75"><defs><style>.cls-1{fill:#b3b3b3;}.cls-2{fill:#fdde62;}.cls-3{fill:#e6e6e6;}.cls-4,.cls-8{fill:gray;stroke:gray;}.cls-4,.cls-6,.cls-7,.cls-8{stroke-miterlimit:10;}.cls-5{fill:#ccc;}.cls-6{fill:#666;stroke:#666;}.cls-7{fill:none;stroke:#999;}.cls-8{stroke-width:2px;}</style></defs><title>skills</title><circle class="cls-1" cx="92.87" cy="92.88" r="92.87"/><circle class="cls-2" cx="192.02" cy="92.88" r="92.87"/><circle class="cls-3" cx="141.75" cy="92.88" r="92.87"/><path class="cls-4" d="M139.58,221.27l1.2,3.15a3.52,3.52,0,0,0,3.06,2.57h21.22a3.56,3.56,0,0,0,3.09-2.52l1.3-3.21" transform="translate(-12.13 -70.12)"/><path class="cls-5" d="M198.87,151a45.72,45.72,0,0,1-11.82,31,49.24,49.24,0,0,0-11.7,21.9l-.63,2.72a7.66,7.66,0,0,1-3,4.52,3.24,3.24,0,0,0-2.27-.93h-30.5a3.16,3.16,0,0,0-2.41,1.09,7,7,0,0,1-2.73-3.62l-1.15-3.44a62.56,62.56,0,0,0-13.27-22.2A45.74,45.74,0,1,1,198.87,151Z" transform="translate(-12.13 -70.12)"/><path class="cls-6" d="M171.68,219.61a2.55,2.55,0,0,1-2.22,2.78H139.59a2.86,2.86,0,0,1,0-5.58h29.87A2.57,2.57,0,0,1,171.68,219.61Z" transform="translate(-12.13 -70.12)"/><polyline class="cls-7" points="151.8 100.2 146.17 95.61 144.18 101.26 140.32 92.48 138.24 104.08 134.83 98.28 130.55 99.74"/><path class="cls-4" d="M172.68,213.54a3.27,3.27,0,0,1-3.23,3.27H138.92a3.21,3.21,0,0,1-2.3-1,3.27,3.27,0,0,1-1-2.31,3.21,3.21,0,0,1,.85-2.18,3.16,3.16,0,0,1,2.41-1.09h30.5a3.24,3.24,0,0,1,2.27.93l0,0A3.27,3.27,0,0,1,172.68,213.54Z" transform="translate(-12.13 -70.12)"/><polyline class="cls-8" points="136.31 140.14 130.55 100.93 129.83 96.05"/><line class="cls-8" x1="152.57" y1="96.05" x2="146.17" y2="140.14"/></svg>