<svg id="Layer_1" data-name="Layer 1" xmlns="http://www.w3.org/2000/svg" viewBox="0 0 240.73 242.39"><defs><style>.cls-1{fill:none;}.cls-2{fill:#ccc;}.cls-3{fill:#b3b3b3;}.cls-4{fill:#e6e6e6;}</style></defs><title>flag</title><path class="cls-1" d="M66.75,132.71c0,.37,77.69-4.54,173.65-11" transform="translate(-66.75 -32.92)"/><path class="cls-1" d="M163.78,114.84c2,30.52,48,52.24,102.81,48.56" transform="translate(-66.75 -32.92)"/><polygon class="cls-2" points="240.73 122.56 122 130.53 119.98 100.45 116.14 43.22 234.88 35.26 240.73 122.56"/><polygon class="cls-3" points="120.09 102.09 184.28 97.78 122 130.53 120.09 102.09"/><rect id="_Rectangle_" data-name="&lt;Rectangle&gt;" class="cls-4" x="127.16" y="44.86" width="121" height="90" transform="translate(-72.35 -20.17) rotate(-3.84)"/><path class="cls-4" d="M125.72,38.11A5.56,5.56,0,1,0,115.23,41a14,14,0,0,1,1.66,5.47l15.34,228.81,7.32-.49L124.19,45.74a10.15,10.15,0,0,1,1-4.93A5.53,5.53,0,0,0,125.72,38.11Z" transform="translate(-66.75 -32.92)"/><path class="cls-4" d="M125.72,38.11A5.56,5.56,0,1,0,115.23,41a14,14,0,0,1,1.66,5.47l15.34,228.81,7.32-.49L124.19,45.74a10.15,10.15,0,0,1,1-4.93A5.53,5.53,0,0,0,125.72,38.11Z" transform="translate(-66.75 -32.92)"/></svg>