<svg id="Layer_1" data-name="Layer 1" xmlns="http://www.w3.org/2000/svg" viewBox="0 0 149.08 144.43"><defs><style>.cls-1{fill:#ccc;}.cls-2{fill:#b3b3b3;}.cls-3{fill:#e6e6e6;}</style></defs><title>flag</title><polygon class="cls-1" points="149.08 88.77 57.09 94.94 55.62 73.02 52.82 31.32 144.81 25.15 149.08 88.77"/><polygon class="cls-2" points="55.7 74.21 105.43 70.88 57.09 94.94 55.7 74.21"/><rect id="_Rectangle_" data-name="&lt;Rectangle&gt;" class="cls-3" x="41.55" y="10.73" width="93.75" height="65.58" transform="translate(-34.67 3.79) rotate(-3.84)"/><path class="cls-3" d="M40.56,5.25c-.14-2.06-2.69-3.51-5.44-2.88A3.93,3.93,0,0,0,32,5.1a2.63,2.63,0,0,0,.39,2,6.77,6.77,0,0,1,1.22,3.24l9.14,136.28,5.67-.38L39.28,9.82a5,5,0,0,1,.86-3A2.72,2.72,0,0,0,40.56,5.25Z" transform="translate(-31.96 -2.22)"/><path class="cls-3" d="M40.56,5.25c-.14-2.06-2.69-3.51-5.44-2.88A3.93,3.93,0,0,0,32,5.1a2.63,2.63,0,0,0,.39,2,6.77,6.77,0,0,1,1.22,3.24l9.14,136.28,5.67-.38L39.28,9.82a5,5,0,0,1,.86-3A2.72,2.72,0,0,0,40.56,5.25Z" transform="translate(-31.96 -2.22)"/></svg>