<svg id="Layer_1" data-name="Layer 1" xmlns="http://www.w3.org/2000/svg" viewBox="0 0 831.85 572.39"><defs><style>.cls-1,.cls-2{fill:none;stroke-linecap:square;stroke-width:6px;}.cls-1,.cls-2,.cls-3{stroke:#999;stroke-miterlimit:10;}.cls-2{stroke-dasharray:11.94 11.94;}.cls-3{fill:#999;stroke-linecap:round;stroke-width:2px;}</style></defs><title>laptop-line</title><line class="cls-1" x1="348.02" y1="27.08" x2="348.02" y2="33.08"/><path class="cls-2" d="M430.66,62c5.74,48,48,85.29,99.34,85.29H883.1c30.72,0,37.07,41.84,7.65,50.35L114.33,421.92C67.41,435.47,80,502.61,128.9,499.4l727.42-47.76c51.62-3.39,75,61,32.42,89.41L821,569" transform="translate(-81.98 -16.97)"/><line class="cls-1" x1="733.53" y1="554.34" x2="727.98" y2="556.63"/><path class="cls-3" d="M437.26,31.34a8.71,8.71,0,0,1-12,1.19A8,8,0,0,1,424.07,21a8.71,8.71,0,0,1,12-1.19A8,8,0,0,1,437.26,31.34Z" transform="translate(-81.98 -16.97)"/><path class="cls-3" d="M800.26,585.33a8.71,8.71,0,0,1-12,1.19A8,8,0,0,1,787.07,575a8.71,8.71,0,0,1,12-1.19A8,8,0,0,1,800.26,585.33Z" transform="translate(-81.98 -16.97)"/></svg>