<svg id="Layer_1" data-name="Layer 1" xmlns="http://www.w3.org/2000/svg" viewBox="0 0 83.74 1579.23"><defs><style>.cls-1{fill:#fff;}.cls-2,.cls-3{fill:none;}.cls-2,.cls-3,.cls-4{stroke:gray;stroke-linecap:square;stroke-miterlimit:10;stroke-width:6px;}.cls-3{stroke-dasharray:12.03 12.03;}.cls-4{fill:gray;}</style></defs><title>mobile-line</title><path class="cls-1" d="M89.42,40.45l6.44,60a108.64,108.64,0,0,1-13.3,65.2l-.19.33A141.55,141.55,0,0,0,96.93,326.72l9.32,11.13a94.42,94.42,0,0,1,8.45,109.41L68.13,524.42a122.26,122.26,0,0,0,3.42,131.7l35.91,53.07a105.13,105.13,0,0,1-3.07,122.16L77.5,867.06a113,113,0,0,0-1.74,133.51l29.58,41.49a94.67,94.67,0,0,1-6.91,118.49l-6.69,7.39a112.84,112.84,0,0,0-5,145.59l18,22.85a93.37,93.37,0,0,1,14.57,89.3c-12,33.45-19.92,68.22-25.06,103.38l-5.65,38.67" transform="translate(-47.54 -14.88)"/><line class="cls-2" x1="41.87" y1="25.57" x2="42.51" y2="31.54"/><path class="cls-3" d="M91.34,58.38l4.52,42a108.64,108.64,0,0,1-13.3,65.2l-.19.33A141.55,141.55,0,0,0,96.93,326.72l9.32,11.13a94.42,94.42,0,0,1,8.45,109.41L68.13,524.42a122.26,122.26,0,0,0,3.42,131.7l35.91,53.07a105.13,105.13,0,0,1-3.07,122.16L77.5,867.06a113,113,0,0,0-1.74,133.51l29.58,41.49a94.67,94.67,0,0,1-6.91,118.49l-6.69,7.39a112.84,112.84,0,0,0-5,145.59l18,22.85a93.37,93.37,0,0,1,14.57,89.3c-12,33.45-19.92,68.22-25.06,103.38l-3.91,26.78" transform="translate(-47.54 -14.88)"/><line class="cls-2" x1="41.96" y1="1546.91" x2="41.09" y2="1552.84"/><circle class="cls-4" cx="39.87" cy="9.12" r="6.12"/><circle class="cls-4" cx="38.87" cy="1570.12" r="6.12"/></svg>