<svg id="Layer_1" data-name="Layer 1" xmlns="http://www.w3.org/2000/svg" viewBox="0 0 284.9 185.75"><defs><style>.cls-1{fill:#b3b3b3;}.cls-2{fill:#fdde62;}.cls-3{fill:#e6e6e6;}.cls-4{fill:gray;}.cls-5{fill:#ccc;}.cls-6{fill:none;stroke:#ccc;stroke-miterlimit:10;}</style></defs><title>flag</title><circle class="cls-1" cx="92.87" cy="92.88" r="92.87"/><circle class="cls-2" cx="192.02" cy="92.88" r="92.87"/><circle class="cls-3" cx="141.75" cy="92.88" r="92.87"/><polygon class="cls-1" points="216.53 115.27 131.24 120.99 129.95 101.83 127.51 65.36 212.8 59.64 216.53 115.27"/><polygon class="cls-4" points="130.02 102.87 176.13 99.78 131.24 120.99 130.02 102.87"/><rect id="_Rectangle_" data-name="&lt;Rectangle&gt;" class="cls-5" x="99.52" y="102.53" width="86.92" height="57.35" transform="translate(-20.58 -47.26) rotate(-3.84)"/><path class="cls-3" d="M99.34,97.69c-.11-1.66-3.23-2.76-6.65-2.17-2,.34-3.57,1.26-3.93,2.3a1.5,1.5,0,0,0,.43,1.62A4.22,4.22,0,0,1,90.61,102L98,211.9l7-.47-7.38-110A3.35,3.35,0,0,1,98.77,99,1.75,1.75,0,0,0,99.34,97.69Z" transform="translate(-12.13 -57.12)"/><path class="cls-6" d="M99.34,97.69c-.11-1.66-3.23-2.76-6.65-2.17-2,.34-3.57,1.26-3.93,2.3a1.5,1.5,0,0,0,.43,1.62A4.22,4.22,0,0,1,90.61,102L98,211.9l7-.47-7.38-110A3.35,3.35,0,0,1,98.77,99,1.75,1.75,0,0,0,99.34,97.69Z" transform="translate(-12.13 -57.12)"/><path class="cls-5" d="M99.34,97.69c-.11-1.66-3.23-2.76-6.65-2.17-2,.34-3.57,1.26-3.93,2.3a1.5,1.5,0,0,0,.43,1.62A4.22,4.22,0,0,1,90.61,102L98,211.9l7-.47-7.38-110A3.35,3.35,0,0,1,98.77,99,1.75,1.75,0,0,0,99.34,97.69Z" transform="translate(-12.13 -57.12)"/></svg>