<svg id="Layer_1" data-name="Layer 1" xmlns="http://www.w3.org/2000/svg" viewBox="0 0 284.9 185.75"><defs><style>.cls-1{fill:#b3b3b3;}.cls-2{fill:#fdde62;}.cls-3,.cls-5{fill:#e6e6e6;}.cls-4{fill:#ccc;}.cls-5{stroke:#ccc;stroke-miterlimit:10;stroke-width:2px;}.cls-6{fill:#999;}</style></defs><title>phone</title><circle class="cls-1" cx="92.87" cy="92.88" r="92.87"/><circle class="cls-2" cx="192.02" cy="92.88" r="92.87"/><circle class="cls-3" cx="141.75" cy="92.88" r="92.87"/><path class="cls-1" d="M137.69,206.14a19,19,0,0,1-1.43-1.46,19.94,19.94,0,0,1-3.14-4.74,3.12,3.12,0,0,1,.39-3.31l19.12-24a3.69,3.69,0,0,1,3.28-1.31,23.1,23.1,0,0,1,5.25,1.2,3.57,3.57,0,0,0,4.56-2.07,57.59,57.59,0,0,0-1.78-42,3.62,3.62,0,0,0-4.78-1.71,23.09,23.09,0,0,1-6.14,1.81,3.66,3.66,0,0,1-3.44-1.35l-19.21-25.12a3.05,3.05,0,0,1-.26-3.4A21.31,21.31,0,0,1,134,93.87a23.22,23.22,0,0,1,30.31-.72c.28.23.55.46.81.72s.28.26.42.41a2.45,2.45,0,0,1,.37.36c15.48,14.75,25,34.9,25,57.11a77.94,77.94,0,0,1-18.79,50.53v0c-1.46,1.72-3,3.39-4.61,5A23.24,23.24,0,0,1,137.69,206.14Z" transform="translate(-12.13 -70.12)"/><ellipse class="cls-4" cx="141.1" cy="114.21" rx="5.05" ry="17.7" transform="translate(-52.54 42.15) rotate(-38.38)"/><ellipse class="cls-4" cx="144.61" cy="185.43" rx="17.63" ry="5.05" transform="translate(-102.58 108.69) rotate(-50.44)"/><path class="cls-5" d="M144.61,210.49l-5.69,13.07a4.15,4.15,0,0,1-7.88-.9h0a3.49,3.49,0,0,1,5.09-3.71l7.37,4a16,16,0,0,1,8.11,17.16h0a3.49,3.49,0,0,1-6.3,1.29l-.37-.54a3.54,3.54,0,0,1,3-5.53h0a16.67,16.67,0,0,1,16.37,15.25l.4,4.71" transform="translate(-12.13 -70.12)"/><rect class="cls-6" x="140.54" y="209.24" width="8.14" height="2.5" rx="1.25" ry="1.25" transform="translate(83.72 -110.31) rotate(23.48)"/></svg>