<svg id="Layer_1" data-name="Layer 1" xmlns="http://www.w3.org/2000/svg" viewBox="0 0 284.9 185.75"><defs><style>.cls-1{fill:#b3b3b3;}.cls-2{fill:#fdde62;}.cls-3{fill:#e6e6e6;}.cls-4{fill:#999;}.cls-5{fill:#ccc;}.cls-6{fill:gray;}</style></defs><title>point</title><circle class="cls-1" cx="92.87" cy="92.88" r="92.87"/><circle class="cls-2" cx="192.02" cy="92.88" r="92.87"/><circle class="cls-3" cx="141.75" cy="92.88" r="92.87"/><ellipse class="cls-4" cx="142.87" cy="155.88" rx="19" ry="9"/><path class="cls-5" d="M194.05,149A46.63,46.63,0,0,0,202,122c-.74-24.09-20.83-43.82-45.56-44.73-27-1-49.27,20-49.27,46.15,0,9.74,3.47,18.54,8.39,26.23,5.32,8.32,5.84,9,7.33,11.33l31.71,53L186,161.43C190.68,154.1,192.35,151.65,194.05,149Z" transform="translate(-12.13 -57.12)"/><circle class="cls-6" cx="142.45" cy="64.17" r="10.59"/></svg>